HIERARCHY
ROOT Hips
{
	OFFSET 0.00 0.00 0.00
	CHANNELS 6 Xposition Yposition Zposition Xrotation Yrotation Zrotation
	JOINT Spine
	{
		OFFSET 0.00000 7.50895 0.00000
		CHANNELS 3 Xrotation Yrotation Zrotation
		JOINT Head
		{
			OFFSET 0.00000 13.86115 0.00000
			CHANNELS 3 Xrotation Yrotation Zrotation
			End Site
			{
				OFFSET 0.00000 4.52755 0.00000
			}
		}
		JOINT LeftShoulder
		{
			OFFSET 0.00000 8.20478 0.00000
			CHANNELS 3 Xrotation Yrotation Zrotation
			JOINT LeftArm
			{
				OFFSET 6.63596 0.00000 0.00000
				CHANNELS 3 Xrotation Yrotation Zrotation
				JOINT LeftForeArm
				{
					OFFSET 10.27422 0.00000 0.00000
					CHANNELS 3 Yrotation Zrotation Xrotation
					JOINT LeftHand
					{
						OFFSET 8.52215 0.00000 0.00000
						CHANNELS 3 Xrotation Yrotation Zrotation
						JOINT LeftHandThumb1
						{
							OFFSET 0.00000 0.00000 0.00000
							CHANNELS 3 Xrotation Zrotation Yrotation
							End Site
							{
								OFFSET 0.00000 0.00000 3.93700
							}
						}
						End Site
						{
							OFFSET 3.93700 0.00000 0.00000
						}
					}
				}
			}
		}
		JOINT RightShoulder
		{
			OFFSET 0.00000 8.20478 0.00000
			CHANNELS 3 Xrotation Yrotation Zrotation
			JOINT RightArm
			{
				OFFSET -6.63596 0.00000 0.00000
				CHANNELS 3 Xrotation Yrotation Zrotation
				JOINT RightForeArm
				{
					OFFSET -10.27422 0.00000 0.00000
					CHANNELS 3 Yrotation Zrotation Xrotation
					JOINT RightHand
					{
						OFFSET -8.52215 0.00000 0.00000
						CHANNELS 3 Xrotation Yrotation Zrotation
						JOINT RightHandThumb1
						{
							OFFSET 0.00000 0.00000 0.00000
							CHANNELS 3 Xrotation Zrotation Yrotation
							End Site
							{
								OFFSET 0.00000 0.00000 3.93700
							}
						}
						End Site
						{
							OFFSET -3.93700 0.00000 0.00000
						}
					}
				}
			}
		}
	}
	JOINT LeftUpLeg
	{
		OFFSET 3.00056 0.00000 0.00000
		CHANNELS 3 Xrotation Yrotation Zrotation
		JOINT LeftLeg
		{
			OFFSET 0.00000 -16.49085 0.00000
			CHANNELS 3 Xrotation Yrotation Zrotation
			JOINT LeftFoot
			{
				OFFSET 0.00000 -14.55658 0.00000
				CHANNELS 3 Xrotation Yrotation Zrotation
				JOINT LeftToeBase
				{
					OFFSET 0.00000 -1.25038 4.66650
					CHANNELS 3 Xrotation Yrotation Zrotation
					End Site
					{
						OFFSET 0.00000 0.00000 2.95275
					}
				}
			}
		}
	}
	JOINT RightUpLeg
	{
		OFFSET -3.00056 0.00000 0.00000
		CHANNELS 3 Xrotation Yrotation Zrotation
		JOINT RightLeg
		{
			OFFSET 0.00000 -16.49085 0.00000
			CHANNELS 3 Xrotation Yrotation Zrotation
			JOINT RightFoot
			{
				OFFSET 0.00000 -14.55658 0.00000
				CHANNELS 3 Xrotation Yrotation Zrotation
				JOINT RightToeBase
				{
					OFFSET 0.00000 -1.25038 4.66650
					CHANNELS 3 Xrotation Yrotation Zrotation
					End Site
					{
						OFFSET 0.00000 0.00000 2.95275
					}
				}
			}
		}
	}
}
MOTION
Frames: 9
Frame Time: 0.008333
 -3.1835 32.9277 -2.2894 11.9168 1.0675 -1.4013 -14.2946 3.9926 1.1476 -9.4671 -6.8361 8.2186 7.7356 21.5741 27.1020 -29.1641 -4.5088 -23.9783 -13.0699 -0.0000 12.8609 4.5816 24.3955 -10.9799 33.1476 -0.0000 26.2537 -26.0283 -8.3795 -38.1472 -7.7417 -5.2829 24.0709 14.7883 -0.0000 30.5567 2.4910 -9.9733 14.1003 32.8623 0.0000 -24.3270 -6.1131 5.4281 1.6166 -1.0034 0.0000 0.0000 -9.2281 12.2760 -10.6383 10.3200 0.0000 0.0000 -7.7573 -3.1058 0.3896 1.9166 0.0000 0.0000 -8.9983 -6.1293 -0.3452 1.1703 -0.0000 -0.0000
 -3.1841 32.9279 -2.2890 11.9163 1.0620 -1.3983 -14.2992 3.9978 1.1523 -9.4258 -6.8575 8.2233 7.7531 21.5737 27.0867 -29.1455 -4.5766 -23.9801 -13.0255 -0.0000 12.8681 4.5446 24.3472 -10.9128 33.1476 -0.0000 26.2537 -26.0093 -8.3958 -38.1319 -7.7574 -5.2540 24.0963 14.7803 -0.0000 30.5886 2.5003 -10.0149 14.0954 32.8623 0.0000 -24.3270 -6.1069 5.4461 1.6148 -1.0141 0.0000 0.0000 -9.2121 12.2690 -10.6340 10.3043 -0.0000 -0.0000 -7.7550 -3.1239 0.3865 1.9118 -0.0000 0.0000 -9.0020 -6.0916 -0.3279 1.2030 -0.0000 0.0000
 -3.1849 32.9280 -2.2900 11.9304 1.0631 -1.3993 -14.3198 4.0006 1.1670 -9.3806 -6.8752 8.2086 7.7674 21.5465 27.0893 -29.1268 -4.5757 -23.9953 -13.0469 -0.0000 12.8477 4.5476 24.3671 -10.9116 33.1476 -0.0000 26.2537 -26.0070 -8.3801 -38.1365 -7.7543 -5.2554 24.1206 14.7721 -0.0000 30.5923 2.5040 -10.0080 14.1243 32.8623 0.0000 -24.3270 -6.1187 5.4505 1.6153 -1.0236 -0.0000 -0.0000 -9.2184 12.2589 -10.5998 10.3301 -0.0000 -0.0000 -7.7693 -3.1188 0.3896 1.9105 0.0000 -0.0000 -9.0030 -6.0970 -0.3340 1.2283 -0.0000 -0.0000
 -3.1861 32.9278 -2.2897 11.9335 1.0651 -1.3967 -14.3265 4.0052 1.1740 -9.3286 -6.9012 8.2185 7.7428 21.5149 27.1074 -29.1226 -4.5597 -24.0203 -13.1035 -0.0000 12.7915 4.5851 24.4423 -10.9689 33.1476 -0.0000 26.2537 -26.0106 -8.4255 -38.1644 -7.7768 -5.1832 24.1948 14.7539 -0.0000 30.6479 2.5206 -10.0963 14.0965 32.8623 0.0000 -24.3270 -6.1174 5.4577 1.6139 -1.0360 0.0000 -0.0000 -9.1982 12.2630 -10.6552 10.3039 -0.0000 -0.0000 -7.7650 -3.1077 0.3892 1.8963 -0.0000 0.0000 -9.0049 -6.1096 -0.3196 1.2750 0.0000 0.0000
 -3.1873 32.9276 -2.2901 11.9391 1.0635 -1.3976 -14.3353 4.0048 1.1805 -9.2862 -6.9042 8.2345 7.7576 21.5033 27.1107 -29.1210 -4.5643 -24.0366 -13.1231 -0.0000 12.7643 4.5845 24.4863 -10.9495 33.1476 -0.0000 26.2537 -26.0141 -8.4136 -38.1649 -7.7302 -5.1524 24.2236 14.7506 -0.0000 30.5822 2.5427 -10.2240 14.0465 32.8623 0.0000 -24.3270 -6.1189 5.4522 1.6164 -1.0443 -0.0000 -0.0000 -9.2038 12.2673 -10.6429 10.3251 0.0000 -0.0000 -7.7652 -3.1044 0.3927 1.8826 -0.0000 0.0000 -8.9895 -6.1201 -0.3291 1.1976 0.0000 0.0000
 -3.1888 32.9278 -2.2908 11.9502 1.0583 -1.3958 -14.3529 3.9909 1.1862 -9.2331 -6.8955 8.2386 7.7357 21.4820 27.1236 -29.0945 -4.5445 -24.0491 -13.1499 -0.0000 12.7766 4.5898 24.4294 -10.9851 33.1476 -0.0000 26.2537 -26.0036 -8.3822 -38.1649 -7.7697 -5.1786 24.2676 14.7504 -0.0000 30.6104 2.5390 -10.1963 14.0630 32.8623 0.0000 -24.3270 -6.1291 5.4647 1.6175 -1.0484 -0.0000 -0.0000 -9.1947 12.2558 -10.6217 10.3230 0.0000 -0.0000 -7.7781 -3.0975 0.3957 1.8816 0.0000 -0.0000 -8.9858 -6.1227 -0.3386 1.2134 0.0000 0.0000
 -3.1900 32.9280 -2.2909 11.9516 1.0547 -1.3917 -14.3592 3.9728 1.1857 -9.1833 -6.8829 8.2640 7.7560 21.4891 27.1242 -29.2012 -4.4777 -24.0859 -13.2070 -0.0000 12.8518 4.5855 24.4394 -10.9711 33.1476 -0.0000 26.2537 -25.9805 -8.3664 -38.1329 -7.7121 -5.1448 24.2796 14.7718 -0.0000 30.5154 2.5420 -10.2133 14.0566 32.8623 0.0000 -24.3270 -6.1294 5.4727 1.6148 -1.0504 0.0000 0.0000 -9.1863 12.2522 -10.6332 10.3115 0.0000 0.0000 -7.7760 -3.0830 0.3933 1.8730 0.0000 -0.0000 -8.9758 -6.1285 -0.3406 1.1892 0.0000 0.0000
 -3.1905 32.9278 -2.2911 11.9555 1.0490 -1.3861 -14.3676 3.9832 1.1941 -9.1338 -6.8847 8.2569 7.7799 21.4793 27.1094 -29.2153 -4.5076 -24.0971 -13.1828 -0.0000 12.8290 4.6015 24.4452 -11.0061 33.1476 -0.0000 26.2537 -25.9742 -8.3536 -38.1464 -7.7231 -5.1645 24.3180 14.7794 -0.0000 30.5352 2.5277 -10.1803 14.0235 32.8623 0.0000 -24.3270 -6.1280 5.4625 1.6099 -1.0589 -0.0000 -0.0000 -9.1793 12.2625 -10.6323 10.3123 -0.0000 0.0000 -7.7785 -3.0720 0.3887 1.8673 0.0000 0.0000 -8.9766 -6.1311 -0.3334 1.2064 -0.0000 -0.0000
 -3.1921 32.9281 -2.2912 11.9579 1.0399 -1.3848 -14.3732 3.9770 1.2024 -9.0989 -6.8581 8.2665 7.7407 21.4356 27.1304 -29.1417 -4.4955 -24.1107 -13.1787 -0.0000 12.8222 4.5919 24.4134 -10.9966 33.1476 -0.0000 26.2537 -25.9796 -8.3225 -38.1382 -7.6852 -5.1549 24.3369 14.7833 -0.0000 30.5202 2.5105 -10.0209 14.1422 32.8623 0.0000 -24.3270 -6.1282 5.4715 1.6125 -1.0642 0.0000 0.0000 -9.1735 12.2734 -10.6515 10.3078 -0.0000 -0.0000 -7.7772 -3.0655 0.3907 1.8585 0.0000 -0.0000 -8.9833 -6.1311 -0.3003 1.2633 -0.0000 -0.0000
